:SAMPLES-PER-SECOND 30
:FULLY-SPECIFIED
:DEGREES
281
root  -12.313 34.4721 -17.3452 -171.536 2.89287 -179.999
RightUpLeg  -9.98864 -12.6347 -0.22382
RightLeg  9.30855 -0.392213 -0.0375514
RightFoot  1.96484 0.0062594 0.0994323
RightToes  -23.3576 -0.100034 -0.203906
Spine  -2.69526 0.149061 0.756151
Spine1  -5.4928 0.287131 1.99692
HEad  -64.7362 4.15638 3.95867
LeftShoulder1  -1.94126e-019 -3.10601e-018 -2.51263e-017
LeftArm  -13.4647 25.1058 -82.9369
LeftForeArm  32.8253 -11.9114 -2.01394
LeftHand  -0.383427 -0.987166 7.11443
RightShoulder  -4.96962e-017 0 -2.36833e-017
RightArm  -36.0211 -25.7589 75.4339
RightForeArm  47.5387 11.0895 1.57767
RightHand  -0.15461 -3.58764 -9.09241
LeftUpLeg  -8.2053 0.124983 1.19822
LeftLeg  9.0411 13.5473 1.25762
LeftFoot  2.01581 0.00152183 0.57924
LeftToes  -18.3617 1.48347e-006 1.01831e-007
282
root  -12.3834 34.488 -17.3569 -171.519 2.86745 179.986
RightUpLeg  -9.78305 -12.8457 -0.350878
RightLeg  8.87779 -0.199669 -0.0170537
RightFoot  2.26392 0.00650067 0.108133
RightToes  -23.7619 -0.101048 -0.204825
Spine  -2.74154 0.165752 0.709288
Spine1  -5.58857 0.347368 1.90087
HEad  -64.1229 3.78599 3.99173
LeftShoulder1  -1.94126e-019 -3.10601e-018 -2.51263e-017
LeftArm  -13.4894 24.9035 -82.7582
LeftForeArm  32.7561 -12.4724 -2.09907
LeftHand  -0.38385 -1.11647 7.00855
RightShoulder  -4.96962e-017 0 -2.36833e-017
RightArm  -35.6681 -25.3269 75.6069
RightForeArm  47.5192 11.3242 1.57417
RightHand  -0.161708 -3.51603 -9.20743
LeftUpLeg  -8.05542 -0.0666969 1.07285
LeftLeg  8.72966 13.7084 1.19797
LeftFoot  2.03251 0.00063521 0.593704
LeftToes  -18.1737 1.48347e-006 1.01831e-007
283
root  -12.443 34.5041 -17.3669 -171.469 2.66957 179.939
RightUpLeg  -9.59081 -13.1707 -0.476127
RightLeg  8.44739 -0.0551043 -0.00347998
RightFoot  2.49832 0.00670041 0.116344
RightToes  -23.9171 -0.101967 -0.205568
Spine  -2.79571 0.157338 0.648175
Spine1  -5.69836 0.350836 1.78158
HEad  -63.6219 3.25327 4.09355
LeftShoulder1  -1.94126e-019 -3.10601e-018 -2.51263e-017
LeftArm  -13.2422 24.7084 -82.6373
LeftForeArm  32.6817 -13.0106 -2.18153
LeftHand  -0.376417 -0.979935 7.06641
RightShoulder  -4.96962e-017 0 -2.36833e-017
RightArm  -34.7188 -25.2009 75.8606
RightForeArm  46.7296 11.8784 1.56369
RightHand  -0.159651 -3.49298 -8.9667
LeftUpLeg  -7.97068 -0.159728 0.936123
LeftLeg  8.40736 13.6362 1.11531
LeftFoot  2.12545 -0.00102121 0.617288
LeftToes  -17.987 1.48347e-006 1.01831e-007
284
root  -12.4892 34.5205 -17.372 -171.431 2.45393 179.927
RightUpLeg  -9.4415 -13.4316 -0.546203
RightLeg  8.13014 0.00665878 0.00163804
RightFoot  2.70136 0.00705705 0.121278
RightToes  -24.1107 -0.102793 -0.206151
Spine  -2.82931 0.15452 0.596193
Spine1  -5.76588 0.362474 1.68225
HEad  -63.3536 2.62557 4.23619
LeftShoulder1  -1.94126e-019 -3.10601e-018 -2.51263e-017
LeftArm  -12.9107 24.5578 -82.5325
LeftForeArm  32.5002 -13.641 -2.27697
LeftHand  -0.373572 -0.924743 6.99778
RightShoulder  -4.96962e-017 0 -2.36833e-017
RightArm  -34.1017 -25.1173 76.1573
RightForeArm  46.229 12.289 1.54947
RightHand  -0.158559 -3.32286 -8.86553
LeftUpLeg  -7.8975 -0.173674 0.8586
LeftLeg  8.11065 13.4623 1.03188
LeftFoot  2.23694 -0.00278357 0.639982
LeftToes  -17.8721 1.48347e-006 1.01831e-007
285
root  -12.5249 34.5329 -17.3748 -171.392 2.22139 179.897
RightUpLeg  -9.36849 -13.6293 -0.618861
RightLeg  7.96907 -0.0404431 -0.00190562
RightFoot  2.77788 0.0075246 0.123635
RightToes  -24.0902 -0.103528 -0.206589
Spine  -2.83845 0.15368 0.537065
Spine1  -5.78408 0.380443 1.56997
HEad  -63.3634 1.94838 4.44698
LeftShoulder1  -1.94126e-019 -3.10601e-018 -2.51263e-017
LeftArm  -12.4519 24.4389 -82.427
LeftForeArm  32.2957 -14.2456 -2.36684
LeftHand  -0.376252 -1.04543 6.92504
RightShoulder  -4.96962e-017 0 -2.36833e-017
RightArm  -33.4253 -25.1065 76.4541
RightForeArm  45.8318 12.6932 1.53111
RightHand  -0.162222 -3.29234 -8.68433
LeftUpLeg  -7.85668 -0.197512 0.777238
LeftLeg  7.87234 13.2992 0.964521
LeftFoot  2.32221 -0.0042402 0.655694
LeftToes  -17.6785 1.48347e-006 1.01831e-007
286
root  -12.5492 34.5391 -17.3852 -171.367 2.05933 179.887
RightUpLeg  -9.3065 -13.7109 -0.660766
RightLeg  7.86789 -0.0949766 -0.00582018
RightFoot  2.85085 0.00794811 0.125677
RightToes  -24.1102 -0.104173 -0.2069
Spine  -2.82573 0.154296 0.490097
Spine1  -5.75869 0.398246 1.48045
HEad  -63.6546 1.40509 4.74254
LeftShoulder1  -1.94126e-019 -3.10601e-018 -2.51263e-017
LeftArm  -12.2259 24.3949 -82.4147
LeftForeArm  32.1459 -14.7511 -2.43845
LeftHand  -0.376205 -1.02633 6.92153
RightShoulder  -4.96962e-017 0 -2.36833e-017
RightArm  -33.0019 -25.0824 76.7113
RightForeArm  45.8183 12.9552 1.51399
RightHand  -0.16766 -3.1195 -8.46023
LeftUpLeg  -7.8227 -0.140465 0.733773
LeftLeg  7.72336 13.1015 0.916506
LeftFoot  2.35541 -0.0048605 0.656485
LeftToes  -17.5494 1.48347e-006 1.01831e-007
287
root  -12.5685 34.5418 -17.4067 -171.333 1.92357 179.871
RightUpLeg  -9.24905 -13.8469 -0.696032
RightLeg  7.77574 -0.118895 -0.00737592
RightFoot  2.90944 0.00833035 0.127409
RightToes  -24.2237 -0.104732 -0.207098
Spine  -2.81286 0.155847 0.44283
Spine1  -5.73292 0.392018 1.39062
HEad  -63.9872 0.922776 4.92711
LeftShoulder1  -1.94126e-019 -3.10601e-018 -2.51263e-017
LeftArm  -11.9289 24.4398 -82.4106
LeftForeArm  32.01 -15.083 -2.48006
LeftHand  -0.376815 -1.04182 6.88479
RightShoulder  -4.96962e-017 0 -2.36833e-017
RightArm  -32.5047 -25.1002 76.9118
RightForeArm  45.6238 13.0981 1.50698
RightHand  -0.171631 -2.99729 -8.33822
LeftUpLeg  -7.81336 -0.245364 0.68994
LeftLeg  7.65929 13.1055 0.90219
LeftFoot  2.35811 -0.00565534 0.658373
LeftToes  -17.5021 1.48347e-006 1.01831e-007
